/* XPM */
static char *_5f0ac0a45c74ebaf42aa18f1b986507E5dl1bbnKo9xOU7R[] = {
/* columns rows colors chars-per-pixel */
"32 32 240 2 ",
"   c None",
".  c #2F2C38",
"X  c #33303B",
"o  c #2D1442",
"O  c #2F1544",
"+  c #2F1545",
"@  c #321749",
"#  c #34174B",
"$  c #331A4B",
"%  c #34184B",
"&  c #35194C",
"*  c #381951",
"=  c #3A1A51",
"-  c #381952",
";  c #391A54",
":  c #3A1A54",
">  c #3D1E57",
",  c #3F1E5B",
"<  c #37224B",
"1  c #39264E",
"2  c #3A2150",
"3  c #3E2A54",
"4  c #401D5D",
"5  c #433D4F",
"6  c #462F5D",
"7  c #473E57",
"8  c #46325C",
"9  c #4A3B5D",
"0  c #4B3F5E",
"q  c #461F60",
"w  c #462364",
"e  c #48216A",
"r  c #4C2D6A",
"t  c #4E356C",
"y  c #542673",
"u  c #522777",
"i  c #552A7A",
"p  c #572A7E",
"a  c #59287A",
"s  c #553077",
"d  c #553A71",
"f  c #533578",
"g  c #454051",
"h  c #484454",
"j  c #4E425D",
"k  c #4F4B59",
"l  c #4F495D",
"z  c #504C5E",
"x  c #4E4261",
"c  c #524463",
"v  c #594C69",
"b  c #5B5566",
"n  c #595368",
"m  c #5B556B",
"M  c #5F5B68",
"N  c #5D586D",
"B  c #605B71",
"V  c #615D72",
"C  c #605876",
"Z  c #635F76",
"A  c #645D76",
"S  c #635E78",
"D  c #665F7A",
"F  c #65616E",
"G  c #67626F",
"H  c #666170",
"J  c #676173",
"K  c #686470",
"L  c #6A6571",
"P  c #6A6574",
"I  c #6C6776",
"U  c #6E6876",
"Y  c #6F6B77",
"T  c #67627A",
"R  c #68647E",
"E  c #69657E",
"W  c #6C677E",
"Q  c #6D697A",
"!  c #706B7A",
"~  c #726E7F",
"^  c #582980",
"/  c #592983",
"(  c #5E2B89",
")  c #5E2E88",
"_  c #5F2D8A",
"`  c #5D3283",
"'  c #662E8B",
"]  c #622D8F",
"[  c #603083",
"{  c #643388",
"}  c #6F3295",
"|  c #6D3197",
" . c #6D3D95",
".. c #693199",
"X. c #6B319C",
"o. c #6C319D",
"O. c #71339C",
"+. c #773F9A",
"@. c #7334A2",
"#. c #7735A0",
"$. c #745F91",
"%. c #696381",
"&. c #6B6681",
"*. c #6D6481",
"=. c #6E6782",
"-. c #716687",
";. c #706B86",
":. c #726A8A",
">. c #746C89",
",. c #797483",
"<. c #7B7785",
"1. c #7C7686",
"2. c #76708C",
"3. c #78708A",
"4. c #7A748B",
"5. c #78728D",
"6. c #79718F",
"7. c #7A768C",
"8. c #7F7A8F",
"9. c #776293",
"0. c #786C90",
"q. c #7C7590",
"w. c #7E7596",
"e. c #8B3EB6",
"r. c #8D3FB7",
"t. c #827D8B",
"y. c #847D8E",
"u. c #837595",
"i. c #867796",
"p. c #807B93",
"a. c #817996",
"s. c #847D95",
"d. c #847E98",
"f. c #847B9C",
"g. c #877F9F",
"h. c #9442BD",
"j. c #9057B6",
"k. c #9076AD",
"l. c #9642C1",
"z. c #9B42CE",
"x. c #A145D1",
"c. c #A34ED7",
"v. c #86808D",
"b. c #878290",
"n. c #898394",
"m. c #88839A",
"M. c #8C839E",
"N. c #8A859C",
"B. c #8A849D",
"V. c #8B869E",
"C. c #8C879D",
"Z. c #8D899C",
"A. c #90899A",
"S. c #908A9D",
"D. c #8B83A2",
"F. c #908AA2",
"G. c #928DA2",
"H. c #928CA3",
"J. c #948FA1",
"K. c #948DA2",
"L. c #938BA6",
"P. c #938CA5",
"I. c #9986AD",
"U. c #938AA8",
"Y. c #958BAB",
"T. c #958DAA",
"R. c #9792A8",
"E. c #9891A8",
"W. c #9993A8",
"Q. c #9A93AA",
"!. c #9A91AE",
"~. c #9B94AC",
"^. c #9D97AD",
"/. c #9D96AE",
"(. c #9D95B0",
"). c #A19BB1",
"_. c #A19AB2",
"`. c #A199B4",
"'. c #A59EB4",
"]. c #A69FB5",
"[. c #A59CB6",
"{. c #A69DB6",
"}. c #A9A2B9",
"|. c #A9A1BA",
" X c #A9A1BB",
".X c #AAA1BB",
"XX c #ABA4B9",
"oX c #AEA7BD",
"OX c #AEA6BF",
"+X c #B0AAB9",
"@X c #B0A8C1",
"#X c #B1A9C1",
"$X c #B3ABC1",
"%X c #B2AAC2",
"&X c #B5A9C5",
"*X c #B4ACC4",
"=X c #B5ADC5",
"-X c #B6ADC5",
";X c #B7ADC6",
":X c #B6AEC6",
">X c #B7B1C1",
",X c #BAB3C1",
"<X c #BCB5C8",
"1X c #BDB6C8",
"2X c #BDB5CB",
"3X c #BFB7CB",
"4X c #BFB7CC",
"5X c #C1B8CE",
"6X c #C1B9CE",
"7X c #C2BACE",
"8X c #C3BACE",
"9X c #C2BACF",
"0X c #C3B1D4",
"qX c #C7B5D7",
"wX c #C5BCD2",
"eX c #C6BDD2",
"rX c #C7BFD2",
"tX c #C8C0D2",
"yX c #CCC4D3",
"uX c #C8C0D4",
"iX c #C9C0D4",
"pX c #C9C1D5",
"aX c #CAC2D4",
"sX c #CCC3D7",
"dX c #CFC7D8",
"fX c #D3CBD7",
"gX c #D0C9DA",
"hX c #D0C8DB",
"jX c #D7CFDD",
"kX c #D5CDDF",
"lX c #DAD1DF",
"zX c #D7CFE0",
"xX c #DAD2E3",
"cX c #DCD3E1",
"vX c #DED6E6",
"bX c #E0D7E7",
"nX c #E1D9E7",
"mX c #E3E0E9",
"MX c #EAE1EB",
"NX c #EDE4EE",
/* pixels */
"                                                                ",
"                                                                ",
"                                                                ",
"                                                                ",
"                        7X/.      %XOX            O.}           ",
"                        vX<X    E.eX.X          #.q a ' }       ",
"                        -X7XcXbX7X2X;.        h.*       * #     ",
"                        .XMXNXbXzX-XG       { y           O     ",
"                        lXvXnXjX@X-XS.N     ] $           e     ",
"                        rXuXfXi.mX-X~.2.    i $         + o.o   ",
"                        7.hXXXI.wX(.J n *.  i 4         ; X.*   ",
"                        I ~.4.;.2.z   =.    r ]         4 X.@   ",
"                          J V &.!.k P X       ( 4       X.]     ",
"                          5XzXuXxXXXB .       s (       / ;     ",
"                      Q T 1X7XzXtXR %.[.U       / 2             ",
"          L.p.  H.H.>XZ.-.M.U.B.W g   b v.,Xy.3.A.$             ",
"        ).H.vXvX+X<.        uXT.q.      H.Z.Z.(.q.$             ",
"        m.E E.2X          c j.k.w.m     uX<.D.w.f ,             ",
"          <.t.          *Xc.x.r.B.xX'.j t u 3 W.'.2             ",
"                      ;XqXz.l.+.hXvXsXA ^ X.X.$.9.              ",
"                      eX0Xe.h.[ yXvX*Xf.6 X.X.X.w               ",
"                      u.T. .@.o.v _.g.f.9 X.] ,                 ",
"                        :.0.d ` / x w.f.7 <                     ",
"                          a.C     8 j S >.                      ",
"                          }.C           A 5                     ",
"                        /.OX            h l                     ",
"                    P.7XkX8.M           K.s.                    ",
"                  s.OXhXn.              H..XT                   ",
"                    G Q               b.uX$XhX                  ",
"                                      L L K Y                   ",
"                                                                ",
"                                                                "
};
