/* XPM */
static char *d848436efaa94aeea35a146426719a73StK8NbQV5mpwQr6p[] = {
/* columns rows colors chars-per-pixel */
"32 32 87 1 ",
"  c None",
". c #080701",
"X c #1D1908",
"o c #1A1515",
"O c #3A3336",
"+ c #3E343B",
"@ c #453936",
"# c #443D37",
"$ c #483D37",
"% c #4A3C3F",
"& c #594C0C",
"* c #6E5F09",
"= c #695D0F",
"- c #645412",
"; c #665B19",
": c #6D601D",
"> c #7B6B1F",
", c #51462F",
"< c #4A4032",
"1 c #4B4337",
"2 c #4C4136",
"3 c #4E4539",
"4 c #564633",
"5 c #564E38",
"6 c #685C2E",
"7 c #604E32",
"8 c #625738",
"9 c #675E3A",
"0 c #6F5E3F",
"q c #715C30",
"w c #746626",
"e c #76622F",
"r c #6F6033",
"t c #726633",
"y c #766635",
"u c #736932",
"i c #7E6C30",
"p c #504041",
"a c #807318",
"s c #977912",
"d c #846C2A",
"f c #806C2E",
"g c #947D2D",
"h c #867B33",
"j c #8C7A3D",
"k c #937D33",
"l c #806547",
"z c #9E5862",
"x c #95801A",
"c c #9B821E",
"v c #A0890C",
"b c #A7941C",
"n c #AD941C",
"m c #AE991E",
"M c #B19C13",
"N c #B49C15",
"B c #9C8221",
"V c #918031",
"C c #A18D31",
"Z c #B69A37",
"A c #C5AD10",
"S c #CAA72F",
"D c #CFBA2B",
"F c #C2B134",
"G c #DFCA34",
"H c #DAC43E",
"J c #E2CC3D",
"K c #E9D63F",
"L c #A69440",
"P c #A39646",
"I c #AA9846",
"U c #B19F46",
"Y c #B7A04C",
"T c #AE9F60",
"R c #CFA44F",
"E c #C7B241",
"W c #E8AB69",
"Q c #D7C547",
"! c #E8D646",
"~ c #EDDA44",
"^ c #EDD949",
"/ c #EEDE50",
"( c #F3E14C",
") c #F5E34F",
"_ c #F7E652",
"` c #F7E867",
"' c #F7EB7C",
/* pixels */
"                                ",
"                                ",
"                                ",
"                                ",
"                                ",
"                                ",
"                                ",
"                                ",
"             O                  ",
"            ,p$                 ",
"            <qc2                ",
"            @NAc   53           ",
"            6MA>   FU0+#        ",
"             iBYZ h)(C%1        ",
"             k''__H/!y          ",
"            e4__TEDur8          ",
"            lRJ^9PS:            ",
"             gG^~Wz             ",
"            Im7fwat             ",
"             djLVv;             ",
"              Q`K*Xo            ",
"              nxs& .            ",
"              = -b              ",
"                                ",
"                                ",
"                                ",
"                                ",
"                                ",
"                                ",
"                                ",
"                                ",
"                                "
};
