/* XPM */
static char *dc86b053624c4692d98822886b6d3317i3Qymis7Tc1T2zQ0[] = {
/* columns rows colors chars-per-pixel */
"32 32 113 2 ",
"   c None",
".  c #000000",
"X  c #0F0000",
"o  c #0B0B0B",
"O  c #1D0101",
"+  c #131313",
"@  c #1B1B1B",
"#  c #250202",
"$  c #2B0202",
"%  c #380505",
"&  c #272727",
"*  c #282828",
"=  c #353535",
"-  c #3C3C3C",
";  c #4A0505",
":  c #5B0606",
">  c #6C0909",
",  c #730606",
"<  c #792626",
"1  c #464646",
"2  c gray30",
"3  c gray32",
"4  c #656565",
"5  c #6C6C6C",
"6  c #767676",
"7  c gray47",
"8  c #8A0C0C",
"9  c #930707",
"0  c #9D0707",
"q  c #930808",
"w  c #9C0909",
"e  c #A50A0A",
"r  c #AB0B0B",
"t  c #B30D0D",
"y  c #BA0F0F",
"u  c #B61010",
"i  c #BD1111",
"p  c #963535",
"a  c #A72C2C",
"s  c #A93131",
"d  c #C00F0F",
"f  c #C31414",
"g  c #CB1616",
"h  c #CD1818",
"j  c #C72323",
"k  c #D32424",
"l  c #848484",
"z  c #8D8D8D",
"x  c #949494",
"c  c #9A9A9A",
"v  c #ACADAC",
"b  c #AEAEAE",
"n  c #AAAAAA",
"m  c #B4B4B4",
"M  c #B6B6B6",
"N  c #BFC0BF",
"B  c gray76",
"V  c #C3C3C3",
"C  c gray77",
"Z  c #C6C6C6",
"A  c #C8C8C8",
"S  c gray82",
"D  c #D4D5D4",
"F  c #D5D5D5",
"G  c #D7D7D7",
"H  c #D9DAD9",
"J  c gray86",
"K  c #DBDCDB",
"L  c gainsboro",
"P  c #DCDDDC",
"I  c #DDDDDD",
"U  c #DDDEDD",
"Y  c gray87",
"T  c #DEDFDE",
"R  c #DFDFDF",
"E  c #DADADA",
"W  c #DFE0DF",
"Q  c gray88",
"!  c #E0E1E0",
"~  c #E1E1E1",
"^  c #E1E2E1",
"/  c #E2E2E2",
"(  c #E2E3E2",
")  c gray89",
"_  c #E3E4E3",
"`  c #E4E4E4",
"'  c #E4E5E4",
"]  c gray90",
"[  c #E5E6E5",
"{  c #E6E6E6",
"}  c #E6E7E6",
"|  c #E7E7E7",
" . c #E7E8E7",
".. c gray91",
"X. c #E8E9E8",
"o. c #E9E9E9",
"O. c #E9EAE9",
"+. c #EAEAEA",
"@. c #EAEBEA",
"#. c gray92",
"$. c #EBECEB",
"%. c #ECECEC",
"&. c #ECEDEC",
"*. c gray93",
"=. c #EDEEED",
"-. c #EEEEEE",
";. c #EFEFEF",
":. c gray94",
">. c #F2F3F2",
",. c #F3F4F3",
"<. c #F4F4F4",
"1. c gray96",
"2. c gray98",
/* pixels */
"                                                                ",
"          p s a a a a a a a a a a a a a a a a a a s p           ",
"      p k g h h h h h h h h h h h h h h h h h h h h g k p       ",
"    < h g g g g g g g h g h h h h h h h g g g g g g g f h <     ",
"    j f f g h f h h h h h g h h h h g g g g h h g g h f f j     ",
"    i i f f f f f f f g g g g g h h g g g g h f f f f f f f     ",
"    u i i i f f f f f f g f g g g g f g f f f f i f f i u u     ",
"    u u i i i i i f f f f f f f g f f f f f f i i i f u u t     ",
"    r u u u u i u f i d d f f d f f d f f d y y i u u t r r     ",
"    e r r u y t u y y y d f d f f f d y y y y y u u u u r e     ",
"    w e r r t t t y y y d 8 % . . $ > y y y y t u t t r r w     ",
"    8 e r r r r t t y y ; . . . . . . # r y t y r r r e w w     ",
"    q w e e r r t t t : . . 3 v M 7 o . # t t r r r e e w q     ",
"    q w e e r r r r r . . l >.$.*.-.B o . , t r r r e e w q     ",
"    $ $ $ $ $ $ $ $ # . @ :.$.2.2.1.+.4 . X $ $ $ $ $ $ $ #     ",
"    . . . . . . . . . . 2 { >.,.<.1.{ c . . . . . . . . . .     ",
"    . . . . . . . . . . = { +.*.&.-.R l . . . . . . . . . .     ",
"    z x c c c c c c 6 . . N K _ { I / & . 1 c c c c x c x z     ",
"    { { { { +.+.+.*.*.* . @ m { { S 1 . . A &.$.+.+.+.+.{ {     ",
"    / { {  . .+.+.+.*.C o . . @ & . . . l &.+.+. . . .{ { /     ",
"    / _ { { {  .+.+.X.+.C = . . . . + c +.+.+. . .{ { { / /     ",
"    W / { _ { _ { {  . .+.*.B x z b +.+. .+. .{ { { _ { / W     ",
"    I / / / / { { _ { { { {  .{ { { { { { { { { { / / / / I     ",
"    I I / / / / / { _ { { { { { { { { { { ` ) / _ / / / I I     ",
"    K I ! / W / / / / / / { _ { { _ { / _ / / / / / / W I I     ",
"    W K I ! I W / / W / / / / / / / / / / / I / W I I I I I     ",
"    F G I I I I I I / I I / I / I / / I I / I W I I I J J F     ",
"    5 J J J K K J I J I K I I I I I I J I J I J K J J J J 5     ",
"      l J F F J J F J F J F J J J F J J J F J G F F F I l       ",
"        - z n n n n n n n n n n n n n n n n n n n n x -         ",
"                                                                ",
"                                                                "
};
